<svg width="20" height="20" viewBox="0 0 20 20" fill="none" xmlns="http://www.w3.org/2000/svg">
  <circle cx="10" cy="10" r="9" stroke="#112A46" stroke-width="2"/>
  <path d="M8.54545 12.5114V12.3182C8.54924 11.6553 8.60795 11.1269 8.72159 10.733C8.83902 10.339 9.00947 10.0208 9.23295 9.77841C9.45644 9.53598 9.72538 9.31629 10.0398 9.11932C10.2746 8.9678 10.4848 8.81061 10.6705 8.64773C10.8561 8.48485 11.0038 8.30492 11.1136 8.10795C11.2235 7.9072 11.2784 7.68371 11.2784 7.4375C11.2784 7.17614 11.2159 6.94697 11.0909 6.75C10.9659 6.55303 10.7973 6.40151 10.5852 6.29545C10.3769 6.18939 10.1458 6.13636 9.89205 6.13636C9.64583 6.13636 9.41288 6.19129 9.19318 6.30114C8.97348 6.4072 8.79356 6.56629 8.65341 6.77841C8.51326 6.98674 8.4375 7.24621 8.42614 7.55682H6.10795C6.12689 6.79924 6.30871 6.17424 6.65341 5.68182C6.99811 5.18561 7.45455 4.81629 8.02273 4.57386C8.59091 4.32765 9.2178 4.20455 9.90341 4.20455C10.6572 4.20455 11.3239 4.32955 11.9034 4.57955C12.483 4.82576 12.9375 5.18371 13.267 5.65341C13.5966 6.12311 13.7614 6.68939 13.7614 7.35227C13.7614 7.79545 13.6875 8.18939 13.5398 8.53409C13.3958 8.875 13.1932 9.17803 12.9318 9.44318C12.6705 9.70455 12.3617 9.94129 12.0057 10.1534C11.7064 10.3314 11.4602 10.517 11.267 10.7102C11.0777 10.9034 10.9356 11.1269 10.8409 11.3807C10.75 11.6345 10.7027 11.947 10.6989 12.3182V12.5114H8.54545ZM9.67045 16.1477C9.29167 16.1477 8.9678 16.0152 8.69886 15.75C8.43371 15.4811 8.30303 15.1591 8.30682 14.7841C8.30303 14.4129 8.43371 14.0947 8.69886 13.8295C8.9678 13.5644 9.29167 13.4318 9.67045 13.4318C10.0303 13.4318 10.3466 13.5644 10.6193 13.8295C10.892 14.0947 11.0303 14.4129 11.0341 14.7841C11.0303 15.0341 10.964 15.2633 10.8352 15.4716C10.7102 15.6761 10.5455 15.8409 10.3409 15.9659C10.1364 16.0871 9.91288 16.1477 9.67045 16.1477Z" fill="#112A46"/>
</svg>
