<svg width="15" height="15" viewBox="0 0 15 15" fill="none" xmlns="http://www.w3.org/2000/svg">
  <path fill-rule="evenodd" clip-rule="evenodd" d="M6 1C6 0.447715 6.44772 0 7 0H8C8.55229 0 9 0.447715 9 1V2.46741C9.34917 2.57133 9.68311 2.71059 9.99768 2.88105L11.0356 1.84311C11.4261 1.45258 12.0593 1.45258 12.4498 1.84311L13.1569 2.55021C13.5475 2.94074 13.5475 3.5739 13.1569 3.96443L12.119 5.00239C12.2894 5.31694 12.4287 5.65086 12.5326 6H14C14.5523 6 15 6.44772 15 7V8C15 8.55229 14.5523 9 14 9H12.5326C12.4287 9.34917 12.2894 9.68311 12.1189 9.99768L13.1568 11.0355C13.5473 11.4261 13.5473 12.0592 13.1568 12.4497L12.4497 13.1568C12.0592 13.5474 11.426 13.5474 11.0355 13.1568L9.99761 12.119C9.68306 12.2894 9.34914 12.4287 9 12.5326V14C9 14.5523 8.55228 15 8 15H7C6.44772 15 6 14.5523 6 14V12.5326C5.65086 12.4287 5.31694 12.2894 5.00239 12.119L3.96455 13.1568C3.57403 13.5473 2.94086 13.5473 2.55034 13.1568L1.84323 12.4497C1.45271 12.0592 1.45271 11.426 1.84323 11.0355L2.88105 9.99768C2.71059 9.68311 2.57133 9.34917 2.46741 9H1C0.447715 9 0 8.55228 0 8V7C0 6.44772 0.447715 6 1 6H2.46741C2.57132 5.65086 2.71057 5.31694 2.88102 5.00239L1.84309 3.96446C1.45257 3.57394 1.45257 2.94077 1.84309 2.55025L2.5502 1.84314C2.94072 1.45262 3.57389 1.45262 3.96441 1.84314L5.00232 2.88105C5.31689 2.71059 5.65083 2.57133 6 2.46741V1ZM7.5 10.5C9.15685 10.5 10.5 9.15685 10.5 7.5C10.5 5.84315 9.15685 4.5 7.5 4.5C5.84315 4.5 4.5 5.84315 4.5 7.5C4.5 9.15685 5.84315 10.5 7.5 10.5Z" fill="#112A46"/>
</svg>
